<?xml version="1.0" encoding="utf-8" standalone="no"?>
<!DOCTYPE svg PUBLIC "-//W3C//DTD SVG 1.1//EN"
  "http://www.w3.org/Graphics/SVG/1.1/DTD/svg11.dtd">
<svg xmlns:xlink="http://www.w3.org/1999/xlink" width="460.8pt" height="337.628427pt" viewBox="0 0 460.8 337.628427" xmlns="http://www.w3.org/2000/svg" version="1.1"><style>svg { --ink: #000000; --paper: #FFFFFF; --fill: #BBA6DF; --accent: #673AB7; --grid: #C8C8C8; fill: var(--ink) } @media (prefers-color-scheme: dark) { svg { --ink: #ECEBF1; --paper: #1F1E25; --fill: #5B4690; --accent: #B49CF5; --grid: #4A4755 } }</style>
 <metadata>
  <rdf:RDF xmlns:dc="http://purl.org/dc/elements/1.1/" xmlns:cc="http://creativecommons.org/ns#" xmlns:rdf="http://www.w3.org/1999/02/22-rdf-syntax-ns#">
   <cc:Work>
    <dc:type rdf:resource="http://purl.org/dc/dcmitype/StillImage"/>
    <dc:format>image/svg+xml</dc:format>
    <dc:creator>
     <cc:Agent>
      <dc:title>dm_figures</dc:title>
     </cc:Agent>
    </dc:creator>
   </cc:Work>
  </rdf:RDF>
 </metadata>
 <defs>
  <style type="text/css">*{stroke-linejoin: round; stroke-linecap: butt}</style>
 </defs>
 <g id="figure_1">
  <g id="patch_1">
   <path d="M 0 337.628427 
L 460.8 337.628427 
L 460.8 0 
L 0 0 
L 0 337.628427 
z
" style="fill: none"/>
  </g>
  <g id="axes_1">
   <g id="QuadContourSet_1">
    <path d="M 285.577371 276.01382 
L 285.905102 276.01382 
L 286.232832 276.01382 
L 286.560562 276.01382 
L 286.888293 276.01382 
L 287.216023 276.01382 
L 287.543753 276.01382 
L 287.871483 276.01382 
L 288.199214 276.01382 
L 288.526944 276.01382 
L 288.854674 276.01382 
L 289.182404 276.01382 
L 289.510135 276.01382 
L 289.837865 276.01382 
L 290.165595 276.01382 
L 290.493325 276.01382 
L 290.821056 276.01382 
L 291.148786 276.01382 
L 291.476516 276.01382 
L 291.804246 276.01382 
L 292.131977 276.01382 
L 292.459707 276.01382 
L 292.787437 276.01382 
L 293.115168 276.01382 
L 293.442898 276.01382 
L 293.770628 276.01382 
L 294.098358 276.01382 
L 294.426089 276.01382 
L 294.753819 276.01382 
L 295.081549 276.01382 
L 295.409279 276.01382 
L 295.73701 276.01382 
L 296.06474 276.01382 
L 296.39247 276.01382 
L 296.7202 276.01382 
L 297.047931 276.01382 
L 297.375661 276.01382 
L 297.703391 276.01382 
L 298.031121 276.01382 
L 298.194987 275.85 
L 298.358852 275.68618 
L 298.686582 275.68618 
L 299.014312 275.68618 
L 299.342043 275.68618 
L 299.669773 275.68618 
L 299.997503 275.68618 
L 300.325233 275.68618 
L 300.652964 275.68618 
L 300.980694 275.68618 
L 301.308424 275.68618 
L 301.636154 275.68618 
L 301.963885 275.68618 
L 302.12775 275.52236 
L 302.291615 275.358539 
L 302.619345 275.358539 
L 302.947075 275.358539 
L 303.274806 275.358539 
L 303.602536 275.358539 
L 303.930266 275.358539 
L 304.257996 275.358539 
L 304.585727 275.358539 
L 304.749592 275.194719 
L 304.913457 275.030899 
L 305.241187 275.030899 
L 305.568918 275.030899 
L 305.896648 275.030899 
L 306.224378 275.030899 
L 306.552108 275.030899 
L 306.879839 275.030899 
L 307.043704 274.867079 
L 307.207569 274.703259 
L 307.535299 274.703259 
L 307.863029 274.703259 
L 308.19076 274.703259 
L 308.51849 274.703259 
L 308.84622 274.703259 
L 309.010085 274.539438 
L 309.17395 274.375618 
L 309.501681 274.375618 
L 309.829411 274.375618 
L 310.157141 274.375618 
L 310.484871 274.375618 
L 310.648737 274.211798 
L 310.812602 274.047978 
L 311.140332 274.047978 
L 311.468062 274.047978 
L 311.795793 274.047978 
L 312.123523 274.047978 
L 312.287388 273.884157 
L 312.451253 273.720337 
L 312.778983 273.720337 
L 313.106714 273.720337 
L 313.434444 273.720337 
L 313.762174 273.720337 
L 313.926039 273.556517 
L 314.089904 273.392697 
L 314.417635 273.392697 
L 314.745365 273.392697 
L 315.073095 273.392697 
L 315.23696 273.228877 
L 315.400825 273.065056 
L 315.728556 273.065056 
L 316.056286 273.065056 
L 316.384016 273.065056 
L 316.547881 272.901236 
L 316.711746 272.737416 
L 317.039477 272.737416 
L 317.367207 272.737416 
L 317.531072 272.573596 
L 317.694937 272.409775 
L 318.022668 272.409775 
L 318.350398 272.409775 
L 318.678128 272.409775 
L 318.841993 272.245955 
L 319.005858 272.082135 
L 319.333589 272.082135 
L 319.661319 272.082135 
L 319.825184 271.918315 
L 319.989049 271.754495 
L 320.316779 271.754495 
L 320.64451 271.754495 
L 320.97224 271.754495 
L 321.136105 271.590674 
L 321.29997 271.426854 
L 321.6277 271.426854 
L 321.955431 271.426854 
L 322.119296 271.263034 
L 322.283161 271.099214 
L 322.610891 271.099214 
L 322.938621 271.099214 
L 323.102487 270.935393 
L 323.266352 270.771573 
L 323.594082 270.771573 
L 323.921812 270.771573 
L 324.085677 270.607753 
L 324.249543 270.443933 
L 324.577273 270.443933 
L 324.741138 270.280113 
L 324.905003 270.116292 
L 325.232733 270.116292 
L 325.560464 270.116292 
L 325.724329 269.952472 
L 325.888194 269.788652 
L 326.215924 269.788652 
L 326.543654 269.788652 
L 326.707519 269.624832 
L 326.871385 269.461011 
L 327.199115 269.461011 
L 327.36298 269.297191 
L 327.526845 269.133371 
L 327.854575 269.133371 
L 328.182306 269.133371 
L 328.346171 268.969551 
L 328.510036 268.80573 
L 328.837766 268.80573 
L 329.001631 268.64191 
L 329.165496 268.47809 
L 329.493227 268.47809 
L 329.820957 268.47809 
L 329.984822 268.31427 
L 330.148687 268.15045 
L 330.476418 268.15045 
L 330.640283 267.986629 
L 330.804148 267.822809 
L 331.131878 267.822809 
L 331.295743 267.658989 
L 331.459608 267.495169 
L 331.787339 267.495169 
L 332.115069 267.495169 
L 332.278934 267.331348 
L 332.442799 267.167528 
L 332.770529 267.167528 
L 332.934394 267.003708 
L 333.09826 266.839888 
L 333.42599 266.839888 
L 333.589855 266.676068 
L 333.75372 266.512247 
L 334.08145 266.512247 
L 334.245316 266.348427 
L 334.409181 266.184607 
L 334.736911 266.184607 
L 334.900776 266.020787 
L 335.064641 265.856966 
L 335.392371 265.856966 
L 335.556237 265.693146 
L 335.720102 265.529326 
L 336.047832 265.529326 
L 336.211697 265.365506 
L 336.375562 265.201686 
L 336.703293 265.201686 
L 336.867158 265.037865 
L 337.031023 264.874045 
L 337.358753 264.874045 
L 337.522618 264.710225 
L 337.686483 264.546405 
L 338.014214 264.546405 
L 338.178079 264.382584 
L 338.341944 264.218764 
L 338.505809 264.054944 
L 338.669674 263.891124 
L 338.997404 263.891124 
L 339.161269 263.727304 
L 339.325135 263.563483 
L 339.652865 263.563483 
L 339.81673 263.399663 
L 339.980595 263.235843 
L 340.308325 263.235843 
L 340.472191 263.072023 
L 340.636056 262.908202 
L 340.799921 262.744382 
L 340.963786 262.580562 
L 341.291516 262.580562 
L 341.455381 262.416742 
L 341.619246 262.252922 
L 341.946977 262.252922 
L 342.110842 262.089101 
L 342.274707 261.925281 
L 342.602437 261.925281 
L 342.766302 261.761461 
L 342.930168 261.597641 
L 343.094033 261.43382 
L 343.257898 261.27 
L 343.585628 261.27 
L 343.749493 261.10618 
L 343.913358 260.94236 
L 344.077223 260.778539 
L 344.241089 260.614719 
L 344.568819 260.614719 
L 344.732684 260.450899 
L 344.896549 260.287079 
L 345.060414 260.123259 
L 345.224279 259.959438 
L 345.55201 259.959438 
L 345.715875 259.795618 
L 345.87974 259.631798 
L 346.043605 259.467978 
L 346.20747 259.304157 
L 346.5352 259.304157 
L 346.699066 259.140337 
L 346.862931 258.976517 
L 347.026796 258.812697 
L 347.190661 258.648877 
L 347.518391 258.648877 
L 347.682256 258.485056 
L 347.846121 258.321236 
L 348.009987 258.157416 
L 348.173852 257.993596 
L 348.501582 257.993596 
L 348.665447 257.829775 
L 348.829312 257.665955 
L 348.993177 257.502135 
L 349.157043 257.338315 
L 349.320908 257.174495 
L 349.484773 257.010674 
L 349.812503 257.010674 
L 349.976368 256.846854 
L 350.140233 256.683034 
L 350.304098 256.519214 
L 350.467964 256.355393 
L 350.631829 256.191573 
L 350.795694 256.027753 
L 351.123424 256.027753 
L 351.287289 255.863933 
L 351.451154 255.700113 
L 351.615019 255.536292 
L 351.778885 255.372472 
L 351.94275 255.208652 
L 352.106615 255.044832 
L 352.27048 254.881011 
L 352.434345 254.717191 
L 352.762075 254.717191 
L 352.925941 254.553371 
L 353.089806 254.389551 
L 353.253671 254.22573 
L 353.417536 254.06191 
L 353.581401 253.89809 
L 353.745266 253.73427 
L 353.909131 253.57045 
L 354.072996 253.406629 
L 354.400727 253.406629 
L 354.564592 253.242809 
L 354.728457 253.078989 
L 354.892322 252.915169 
L 355.056187 252.751348 
L 355.220052 252.587528 
L 355.383918 252.423708 
L 355.547783 252.259888 
L 355.711648 252.096068 
L 355.875513 251.932247 
L 356.039378 251.768427 
L 356.203243 251.604607 
L 356.367108 251.440787 
L 356.530973 251.276966 
L 356.694839 251.113146 
L 357.022569 251.113146 
L 357.186434 250.949326 
L 357.350299 250.785506 
L 357.514164 250.621686 
L 357.678029 250.457865 
L 357.841894 250.294045 
L 358.00576 250.130225 
L 358.169625 249.966405 
L 358.33349 249.802584 
L 358.497355 249.638764 
L 358.66122 249.474944 
L 358.825085 249.311124 
L 358.98895 249.147304 
L 359.152816 248.983483 
L 359.316681 248.819663 
L 359.480546 248.655843 
L 359.644411 248.492023 
L 359.808276 248.328202 
L 359.972141 248.164382 
L 360.136006 248.000562 
L 360.299871 247.836742 
L 360.463737 247.672922 
L 360.627602 247.509101 
L 360.791467 247.345281 
L 360.955332 247.181461 
L 361.119197 247.017641 
L 361.283062 246.85382 
L 361.446927 246.69 
L 361.610793 246.52618 
L 361.774658 246.36236 
L 361.938523 246.198539 
L 362.102388 246.034719 
L 362.266253 245.870899 
L 362.430118 245.707079 
L 362.593983 245.543259 
L 362.757848 245.379438 
L 362.921714 245.215618 
L 363.085579 245.051798 
L 363.249444 244.887978 
L 363.413309 244.724157 
L 363.577174 244.560337 
L 363.741039 244.396517 
L 363.904904 244.232697 
L 364.068769 244.068877 
L 364.068769 243.741236 
L 364.232635 243.577416 
L 364.3965 243.413596 
L 364.560365 243.249775 
L 364.72423 243.085955 
L 364.888095 242.922135 
L 365.05196 242.758315 
L 365.215825 242.594495 
L 365.379691 242.430674 
L 365.543556 242.266854 
L 365.707421 242.103034 
L 365.871286 241.939214 
L 366.035151 241.775393 
L 366.199016 241.611573 
L 366.362881 241.447753 
L 366.362881 241.120113 
L 366.526746 240.956292 
L 366.690612 240.792472 
L 366.854477 240.628652 
L 367.018342 240.464832 
L 367.182207 240.301011 
L 367.346072 240.137191 
L 367.509937 239.973371 
L 367.673802 239.809551 
L 367.673802 239.48191 
L 367.837668 239.31809 
L 368.001533 239.15427 
L 368.165398 238.99045 
L 368.329263 238.826629 
L 368.493128 238.662809 
L 368.656993 238.498989 
L 368.820858 238.335169 
L 368.984723 238.171348 
L 368.984723 237.843708 
L 369.148589 237.679888 
L 369.312454 237.516068 
L 369.476319 237.352247 
L 369.640184 237.188427 
L 369.804049 237.024607 
L 369.967914 236.860787 
L 369.967914 236.533146 
L 370.131779 236.369326 
L 370.295644 236.205506 
L 370.45951 236.041686 
L 370.623375 235.877865 
L 370.78724 235.714045 
L 370.951105 235.550225 
L 370.951105 235.222584 
L 371.11497 235.058764 
L 371.278835 234.894944 
L 371.4427 234.731124 
L 371.606566 234.567304 
L 371.606566 234.239663 
L 371.770431 234.075843 
L 371.934296 233.912023 
L 372.098161 233.748202 
L 372.262026 233.584382 
L 372.262026 233.256742 
L 372.425891 233.092922 
L 372.589756 232.929101 
L 372.753621 232.765281 
L 372.917487 232.601461 
L 372.917487 232.27382 
L 373.081352 232.11 
L 373.245217 231.94618 
L 373.409082 231.78236 
L 373.572947 231.618539 
L 373.572947 231.290899 
L 373.736812 231.127079 
L 373.900677 230.963259 
L 374.064543 230.799438 
L 374.228408 230.635618 
L 374.228408 230.307978 
L 374.392273 230.144157 
L 374.556138 229.980337 
L 374.720003 229.816517 
L 374.883868 229.652697 
L 374.883868 229.325056 
L 375.047733 229.161236 
L 375.211598 228.997416 
L 375.211598 228.669775 
L 375.375464 228.505955 
L 375.539329 228.342135 
L 375.703194 228.178315 
L 375.867059 228.014495 
L 375.867059 227.686854 
L 376.030924 227.523034 
L 376.194789 227.359214 
L 376.194789 227.031573 
L 376.358654 226.867753 
L 376.522519 226.703933 
L 376.522519 226.376292 
L 376.686385 226.212472 
L 376.85025 226.048652 
L 376.85025 225.721011 
L 377.014115 225.557191 
L 377.17798 225.393371 
L 377.341845 225.229551 
L 377.50571 225.06573 
L 377.50571 224.73809 
L 377.669575 224.57427 
L 377.833441 224.41045 
L 377.833441 224.082809 
L 377.997306 223.918989 
L 378.161171 223.755169 
L 378.161171 223.427528 
L 378.325036 223.263708 
L 378.488901 223.099888 
L 378.488901 222.772247 
L 378.652766 222.608427 
L 378.816631 222.444607 
L 378.816631 222.116966 
L 378.980496 221.953146 
L 379.144362 221.789326 
L 379.144362 221.461686 
L 379.308227 221.297865 
L 379.472092 221.134045 
L 379.472092 220.806405 
L 379.635957 220.642584 
L 379.799822 220.478764 
L 379.799822 220.151124 
L 379.963687 219.987304 
L 380.127552 219.823483 
L 380.127552 219.495843 
L 380.291418 219.332023 
L 380.455283 219.168202 
L 380.455283 218.840562 
L 380.455283 218.512922 
L 380.619148 218.349101 
L 380.783013 218.185281 
L 380.783013 217.857641 
L 380.946878 217.69382 
L 381.110743 217.53 
L 381.110743 217.20236 
L 381.274608 217.038539 
L 381.438473 216.874719 
L 381.438473 216.547079 
L 381.438473 216.219438 
L 381.602339 216.055618 
L 381.766204 215.891798 
L 381.766204 215.564157 
L 381.930069 215.400337 
L 382.093934 215.236517 
L 382.093934 214.908877 
L 382.093934 214.581236 
L 382.257799 214.417416 
L 382.421664 214.253596 
L 382.421664 213.925955 
L 382.585529 213.762135 
L 382.749394 213.598315 
L 382.749394 213.270674 
L 382.749394 212.943034 
L 382.91326 212.779214 
L 383.077125 212.615393 
L 383.077125 212.287753 
L 383.077125 211.960113 
L 383.24099 211.796292 
L 383.404855 211.632472 
L 383.404855 211.304832 
L 383.56872 211.141011 
L 383.732585 210.977191 
L 383.732585 210.649551 
L 383.732585 210.32191 
L 383.89645 210.15809 
L 384.060316 209.99427 
L 384.060316 209.666629 
L 384.060316 209.338989 
L 384.224181 209.175169 
L 384.388046 209.011348 
L 384.388046 208.683708 
L 384.388046 208.356068 
L 384.551911 208.192247 
L 384.715776 208.028427 
L 384.715776 207.700787 
L 384.715776 207.373146 
L 384.715776 207.045506 
L 384.879641 206.881686 
L 385.043506 206.717865 
L 385.043506 206.390225 
L 385.043506 206.062584 
L 385.207371 205.898764 
L 385.371237 205.734944 
L 385.371237 205.407304 
L 385.371237 205.079663 
L 385.371237 204.752023 
L 385.535102 204.588202 
L 385.698967 204.424382 
L 385.698967 204.096742 
L 385.698967 203.769101 
L 385.862832 203.605281 
L 386.026697 203.441461 
L 386.026697 203.11382 
L 386.026697 202.78618 
L 386.026697 202.458539 
L 386.190562 202.294719 
L 386.354427 202.130899 
L 386.354427 201.803259 
L 386.354427 201.475618 
L 386.354427 201.147978 
L 386.518293 200.984157 
L 386.682158 200.820337 
L 386.682158 200.492697 
L 386.682158 200.165056 
L 386.682158 199.837416 
L 386.682158 199.509775 
L 386.846023 199.345955 
L 387.009888 199.182135 
L 387.009888 198.854495 
L 387.009888 198.526854 
L 387.009888 198.199214 
L 387.009888 197.871573 
L 387.173753 197.707753 
L 387.337618 197.543933 
L 387.337618 197.216292 
L 387.337618 196.888652 
L 387.337618 196.561011 
L 387.337618 196.233371 
L 387.501483 196.069551 
L 387.665348 195.90573 
L 387.665348 195.57809 
L 387.665348 195.25045 
L 387.665348 194.922809 
L 387.665348 194.595169 
L 387.665348 194.267528 
L 387.829214 194.103708 
L 387.993079 193.939888 
L 387.993079 193.612247 
L 387.993079 193.284607 
L 387.993079 192.956966 
L 387.993079 192.629326 
L 387.993079 192.301686 
L 387.993079 191.974045 
L 388.156944 191.810225 
L 388.320809 191.646405 
L 388.320809 191.318764 
L 388.320809 190.991124 
L 388.320809 190.663483 
L 388.320809 190.335843 
L 388.320809 190.008202 
L 388.320809 189.680562 
L 388.320809 189.352922 
L 388.484674 189.189101 
L 388.648539 189.025281 
L 388.648539 188.697641 
L 388.648539 188.37 
L 388.648539 188.04236 
L 388.648539 187.714719 
L 388.648539 187.387079 
L 388.648539 187.059438 
L 388.648539 186.731798 
L 388.648539 186.404157 
L 388.648539 186.076517 
L 388.648539 185.748877 
L 388.812404 185.585056 
L 388.976269 185.421236 
L 388.976269 185.093596 
L 388.976269 184.765955 
L 388.976269 184.438315 
L 388.976269 184.110674 
L 388.976269 183.783034 
L 388.976269 183.455393 
L 388.976269 183.127753 
L 388.976269 182.800113 
L 388.976269 182.472472 
L 388.976269 182.144832 
L 388.976269 181.817191 
L 388.976269 181.489551 
L 388.976269 181.16191 
L 388.976269 180.83427 
L 388.976269 180.506629 
L 388.976269 180.178989 
L 388.976269 179.851348 
L 388.976269 179.523708 
L 388.976269 179.196068 
L 388.976269 178.868427 
L 388.976269 178.540787 
L 388.976269 178.213146 
L 388.976269 177.885506 
L 388.976269 177.557865 
L 388.976269 177.230225 
L 388.976269 176.902584 
L 388.976269 176.574944 
L 388.976269 176.247304 
L 388.976269 175.919663 
L 388.976269 175.592023 
L 388.976269 175.264382 
L 388.976269 174.936742 
L 388.976269 174.609101 
L 388.976269 174.281461 
L 388.976269 173.95382 
L 388.976269 173.62618 
L 388.976269 173.298539 
L 388.976269 172.970899 
L 388.976269 172.643259 
L 388.976269 172.315618 
L 388.812404 172.151798 
L 388.648539 171.987978 
L 388.648539 171.660337 
L 388.648539 171.332697 
L 388.648539 171.005056 
L 388.648539 170.677416 
L 388.648539 170.349775 
L 388.648539 170.022135 
L 388.648539 169.694495 
L 388.648539 169.366854 
L 388.648539 169.039214 
L 388.648539 168.711573 
L 388.484674 168.547753 
L 388.320809 168.383933 
L 388.320809 168.056292 
L 388.320809 167.728652 
L 388.320809 167.401011 
L 388.320809 167.073371 
L 388.320809 166.74573 
L 388.320809 166.41809 
L 388.320809 166.09045 
L 388.156944 165.926629 
L 387.993079 165.762809 
L 387.993079 165.435169 
L 387.993079 165.107528 
L 387.993079 164.779888 
L 387.993079 164.452247 
L 387.993079 164.124607 
L 387.993079 163.796966 
L 387.829214 163.633146 
L 387.665348 163.469326 
L 387.665348 163.141686 
L 387.665348 162.814045 
L 387.665348 162.486405 
L 387.665348 162.158764 
L 387.665348 161.831124 
L 387.501483 161.667304 
L 387.337618 161.503483 
L 387.337618 161.175843 
L 387.337618 160.848202 
L 387.337618 160.520562 
L 387.337618 160.192922 
L 387.173753 160.029101 
L 387.009888 159.865281 
L 387.009888 159.537641 
L 387.009888 159.21 
L 387.009888 158.88236 
L 387.009888 158.554719 
L 386.846023 158.390899 
L 386.682158 158.227079 
L 386.682158 157.899438 
L 386.682158 157.571798 
L 386.682158 157.244157 
L 386.682158 156.916517 
L 386.518293 156.752697 
L 386.354427 156.588877 
L 386.354427 156.261236 
L 386.354427 155.933596 
L 386.354427 155.605955 
L 386.190562 155.442135 
L 386.026697 155.278315 
L 386.026697 154.950674 
L 386.026697 154.623034 
L 386.026697 154.295393 
L 385.862832 154.131573 
L 385.698967 153.967753 
L 385.698967 153.640113 
L 385.698967 153.312472 
L 385.535102 153.148652 
L 385.371237 152.984832 
L 385.371237 152.657191 
L 385.371237 152.329551 
L 385.371237 152.00191 
L 385.207371 151.83809 
L 385.043506 151.67427 
L 385.043506 151.346629 
L 385.043506 151.018989 
L 384.879641 150.855169 
L 384.715776 150.691348 
L 384.715776 150.363708 
L 384.715776 150.036068 
L 384.715776 149.708427 
L 384.551911 149.544607 
L 384.388046 149.380787 
L 384.388046 149.053146 
L 384.388046 148.725506 
L 384.224181 148.561686 
L 384.060316 148.397865 
L 384.060316 148.070225 
L 384.060316 147.742584 
L 383.89645 147.578764 
L 383.732585 147.414944 
L 383.732585 147.087304 
L 383.732585 146.759663 
L 383.56872 146.595843 
L 383.404855 146.432023 
L 383.404855 146.104382 
L 383.24099 145.940562 
L 383.077125 145.776742 
L 383.077125 145.449101 
L 383.077125 145.121461 
L 382.91326 144.957641 
L 382.749394 144.79382 
L 382.749394 144.46618 
L 382.749394 144.138539 
L 382.585529 143.974719 
L 382.421664 143.810899 
L 382.421664 143.483259 
L 382.257799 143.319438 
L 382.093934 143.155618 
L 382.093934 142.827978 
L 382.093934 142.500337 
L 381.930069 142.336517 
L 381.766204 142.172697 
L 381.766204 141.845056 
L 381.602339 141.681236 
L 381.438473 141.517416 
L 381.438473 141.189775 
L 381.438473 140.862135 
L 381.274608 140.698315 
L 381.110743 140.534495 
L 381.110743 140.206854 
L 380.946878 140.043034 
L 380.783013 139.879214 
L 380.783013 139.551573 
L 380.619148 139.387753 
L 380.455283 139.223933 
L 380.455283 138.896292 
L 380.455283 138.568652 
L 380.291418 138.404832 
L 380.127552 138.241011 
L 380.127552 137.913371 
L 379.963687 137.749551 
L 379.799822 137.58573 
L 379.799822 137.25809 
L 379.635957 137.09427 
L 379.472092 136.93045 
L 379.472092 136.602809 
L 379.308227 136.438989 
L 379.144362 136.275169 
L 379.144362 135.947528 
L 378.980496 135.783708 
L 378.816631 135.619888 
L 378.816631 135.292247 
L 378.652766 135.128427 
L 378.488901 134.964607 
L 378.488901 134.636966 
L 378.325036 134.473146 
L 378.161171 134.309326 
L 378.161171 133.981686 
L 377.997306 133.817865 
L 377.833441 133.654045 
L 377.833441 133.326405 
L 377.669575 133.162584 
L 377.50571 132.998764 
L 377.50571 132.671124 
L 377.341845 132.507304 
L 377.17798 132.343483 
L 377.014115 132.179663 
L 376.85025 132.015843 
L 376.85025 131.688202 
L 376.686385 131.524382 
L 376.522519 131.360562 
L 376.522519 131.032922 
L 376.358654 130.869101 
L 376.194789 130.705281 
L 376.194789 130.377641 
L 376.030924 130.21382 
L 375.867059 130.05 
L 375.867059 129.72236 
L 375.703194 129.558539 
L 375.539329 129.394719 
L 375.375464 129.230899 
L 375.211598 129.067079 
L 375.211598 128.739438 
L 375.047733 128.575618 
L 374.883868 128.411798 
L 374.883868 128.084157 
L 374.720003 127.920337 
L 374.556138 127.756517 
L 374.392273 127.592697 
L 374.228408 127.428877 
L 374.228408 127.101236 
L 374.064543 126.937416 
L 373.900677 126.773596 
L 373.736812 126.609775 
L 373.572947 126.445955 
L 373.572947 126.118315 
L 373.409082 125.954495 
L 373.245217 125.790674 
L 373.081352 125.626854 
L 372.917487 125.463034 
L 372.917487 125.135393 
L 372.753621 124.971573 
L 372.589756 124.807753 
L 372.425891 124.643933 
L 372.262026 124.480113 
L 372.262026 124.152472 
L 372.098161 123.988652 
L 371.934296 123.824832 
L 371.770431 123.661011 
L 371.606566 123.497191 
L 371.606566 123.169551 
L 371.4427 123.00573 
L 371.278835 122.84191 
L 371.11497 122.67809 
L 370.951105 122.51427 
L 370.951105 122.186629 
L 370.78724 122.022809 
L 370.623375 121.858989 
L 370.45951 121.695169 
L 370.295644 121.531348 
L 370.131779 121.367528 
L 369.967914 121.203708 
L 369.967914 120.876068 
L 369.804049 120.712247 
L 369.640184 120.548427 
L 369.476319 120.384607 
L 369.312454 120.220787 
L 369.148589 120.056966 
L 368.984723 119.893146 
L 368.984723 119.565506 
L 368.820858 119.401686 
L 368.656993 119.237865 
L 368.493128 119.074045 
L 368.329263 118.910225 
L 368.165398 118.746405 
L 368.001533 118.582584 
L 367.837668 118.418764 
L 367.673802 118.254944 
L 367.673802 117.927304 
L 367.509937 117.763483 
L 367.346072 117.599663 
L 367.182207 117.435843 
L 367.018342 117.272023 
L 366.854477 117.108202 
L 366.690612 116.944382 
L 366.526746 116.780562 
L 366.362881 116.616742 
L 366.362881 116.289101 
L 366.199016 116.125281 
L 366.035151 115.961461 
L 365.871286 115.797641 
L 365.707421 115.63382 
L 365.543556 115.47 
L 365.379691 115.30618 
L 365.215825 115.14236 
L 365.05196 114.978539 
L 364.888095 114.814719 
L 364.72423 114.650899 
L 364.560365 114.487079 
L 364.3965 114.323259 
L 364.232635 114.159438 
L 364.068769 113.995618 
L 364.068769 113.667978 
L 363.904904 113.504157 
L 363.741039 113.340337 
L 363.577174 113.176517 
L 363.413309 113.012697 
L 363.249444 112.848877 
L 363.085579 112.685056 
L 362.921714 112.521236 
L 362.757848 112.357416 
L 362.593983 112.193596 
L 362.430118 112.029775 
L 362.266253 111.865955 
L 362.102388 111.702135 
L 361.938523 111.538315 
L 361.774658 111.374495 
L 361.610793 111.210674 
L 361.446927 111.046854 
L 361.283062 110.883034 
L 361.119197 110.719214 
L 360.955332 110.555393 
L 360.791467 110.391573 
L 360.627602 110.227753 
L 360.463737 110.063933 
L 360.299871 109.900113 
L 360.136006 109.736292 
L 359.972141 109.572472 
L 359.808276 109.408652 
L 359.644411 109.244832 
L 359.480546 109.081011 
L 359.316681 108.917191 
L 359.152816 108.753371 
L 358.98895 108.589551 
L 358.825085 108.42573 
L 358.66122 108.26191 
L 358.497355 108.09809 
L 358.33349 107.93427 
L 358.169625 107.77045 
L 358.00576 107.606629 
L 357.841894 107.442809 
L 357.678029 107.278989 
L 357.514164 107.115169 
L 357.350299 106.951348 
L 357.186434 106.787528 
L 357.022569 106.623708 
L 356.694839 106.623708 
L 356.530973 106.459888 
L 356.367108 106.296068 
L 356.203243 106.132247 
L 356.039378 105.968427 
L 355.875513 105.804607 
L 355.711648 105.640787 
L 355.547783 105.476966 
L 355.383918 105.313146 
L 355.220052 105.149326 
L 355.056187 104.985506 
L 354.892322 104.821686 
L 354.728457 104.657865 
L 354.564592 104.494045 
L 354.400727 104.330225 
L 354.072996 104.330225 
L 353.909131 104.166405 
L 353.745266 104.002584 
L 353.581401 103.838764 
L 353.417536 103.674944 
L 353.253671 103.511124 
L 353.089806 103.347304 
L 352.925941 103.183483 
L 352.762075 103.019663 
L 352.434345 103.019663 
L 352.27048 102.855843 
L 352.106615 102.692023 
L 351.94275 102.528202 
L 351.778885 102.364382 
L 351.615019 102.200562 
L 351.451154 102.036742 
L 351.287289 101.872922 
L 351.123424 101.709101 
L 350.795694 101.709101 
L 350.631829 101.545281 
L 350.467964 101.381461 
L 350.304098 101.217641 
L 350.140233 101.05382 
L 349.976368 100.89 
L 349.812503 100.72618 
L 349.484773 100.72618 
L 349.320908 100.56236 
L 349.157043 100.398539 
L 348.993177 100.234719 
L 348.829312 100.070899 
L 348.665447 99.907079 
L 348.501582 99.743259 
L 348.173852 99.743259 
L 348.009987 99.579438 
L 347.846121 99.415618 
L 347.682256 99.251798 
L 347.518391 99.087978 
L 347.190661 99.087978 
L 347.026796 98.924157 
L 346.862931 98.760337 
L 346.699066 98.596517 
L 346.5352 98.432697 
L 346.20747 98.432697 
L 346.043605 98.268877 
L 345.87974 98.105056 
L 345.715875 97.941236 
L 345.55201 97.777416 
L 345.224279 97.777416 
L 345.060414 97.613596 
L 344.896549 97.449775 
L 344.732684 97.285955 
L 344.568819 97.122135 
L 344.241089 97.122135 
L 344.077223 96.958315 
L 343.913358 96.794495 
L 343.749493 96.630674 
L 343.585628 96.466854 
L 343.257898 96.466854 
L 343.094033 96.303034 
L 342.930168 96.139214 
L 342.766302 95.975393 
L 342.602437 95.811573 
L 342.274707 95.811573 
L 342.110842 95.647753 
L 341.946977 95.483933 
L 341.619246 95.483933 
L 341.455381 95.320113 
L 341.291516 95.156292 
L 340.963786 95.156292 
L 340.799921 94.992472 
L 340.636056 94.828652 
L 340.472191 94.664832 
L 340.308325 94.501011 
L 339.980595 94.501011 
L 339.81673 94.337191 
L 339.652865 94.173371 
L 339.325135 94.173371 
L 339.161269 94.009551 
L 338.997404 93.84573 
L 338.669674 93.84573 
L 338.505809 93.68191 
L 338.341944 93.51809 
L 338.178079 93.35427 
L 338.014214 93.19045 
L 337.686483 93.19045 
L 337.522618 93.026629 
L 337.358753 92.862809 
L 337.031023 92.862809 
L 336.867158 92.698989 
L 336.703293 92.535169 
L 336.375562 92.535169 
L 336.211697 92.371348 
L 336.047832 92.207528 
L 335.720102 92.207528 
L 335.556237 92.043708 
L 335.392371 91.879888 
L 335.064641 91.879888 
L 334.900776 91.716068 
L 334.736911 91.552247 
L 334.409181 91.552247 
L 334.245316 91.388427 
L 334.08145 91.224607 
L 333.75372 91.224607 
L 333.589855 91.060787 
L 333.42599 90.896966 
L 333.09826 90.896966 
L 332.934394 90.733146 
L 332.770529 90.569326 
L 332.442799 90.569326 
L 332.278934 90.405506 
L 332.115069 90.241686 
L 331.787339 90.241686 
L 331.459608 90.241686 
L 331.295743 90.077865 
L 331.131878 89.914045 
L 330.804148 89.914045 
L 330.640283 89.750225 
L 330.476418 89.586405 
L 330.148687 89.586405 
L 329.984822 89.422584 
L 329.820957 89.258764 
L 329.493227 89.258764 
L 329.165496 89.258764 
L 329.001631 89.094944 
L 328.837766 88.931124 
L 328.510036 88.931124 
L 328.346171 88.767304 
L 328.182306 88.603483 
L 327.854575 88.603483 
L 327.526845 88.603483 
L 327.36298 88.439663 
L 327.199115 88.275843 
L 326.871385 88.275843 
L 326.707519 88.112023 
L 326.543654 87.948202 
L 326.215924 87.948202 
L 325.888194 87.948202 
L 325.724329 87.784382 
L 325.560464 87.620562 
L 325.232733 87.620562 
L 324.905003 87.620562 
L 324.741138 87.456742 
L 324.577273 87.292922 
L 324.249543 87.292922 
L 324.085677 87.129101 
L 323.921812 86.965281 
L 323.594082 86.965281 
L 323.266352 86.965281 
L 323.102487 86.801461 
L 322.938621 86.637641 
L 322.610891 86.637641 
L 322.283161 86.637641 
L 322.119296 86.47382 
L 321.955431 86.31 
L 321.6277 86.31 
L 321.29997 86.31 
L 321.136105 86.14618 
L 320.97224 85.98236 
L 320.64451 85.98236 
L 320.316779 85.98236 
L 319.989049 85.98236 
L 319.825184 85.818539 
L 319.661319 85.654719 
L 319.333589 85.654719 
L 319.005858 85.654719 
L 318.841993 85.490899 
L 318.678128 85.327079 
L 318.350398 85.327079 
L 318.022668 85.327079 
L 317.694937 85.327079 
L 317.531072 85.163259 
L 317.367207 84.999438 
L 317.039477 84.999438 
L 316.711746 84.999438 
L 316.547881 84.835618 
L 316.384016 84.671798 
L 316.056286 84.671798 
L 315.728556 84.671798 
L 315.400825 84.671798 
L 315.23696 84.507978 
L 315.073095 84.344157 
L 314.745365 84.344157 
L 314.417635 84.344157 
L 314.089904 84.344157 
L 313.926039 84.180337 
L 313.762174 84.016517 
L 313.434444 84.016517 
L 313.106714 84.016517 
L 312.778983 84.016517 
L 312.451253 84.016517 
L 312.287388 83.852697 
L 312.123523 83.688877 
L 311.795793 83.688877 
L 311.468062 83.688877 
L 311.140332 83.688877 
L 310.812602 83.688877 
L 310.648737 83.525056 
L 310.484871 83.361236 
L 310.157141 83.361236 
L 309.829411 83.361236 
L 309.501681 83.361236 
L 309.17395 83.361236 
L 309.010085 83.197416 
L 308.84622 83.033596 
L 308.51849 83.033596 
L 308.19076 83.033596 
L 307.863029 83.033596 
L 307.535299 83.033596 
L 307.207569 83.033596 
L 307.043704 82.869775 
L 306.879839 82.705955 
L 306.552108 82.705955 
L 306.224378 82.705955 
L 305.896648 82.705955 
L 305.568918 82.705955 
L 305.241187 82.705955 
L 304.913457 82.705955 
L 304.749592 82.542135 
L 304.585727 82.378315 
L 304.257996 82.378315 
L 303.930266 82.378315 
L 303.602536 82.378315 
L 303.274806 82.378315 
L 302.947075 82.378315 
L 302.619345 82.378315 
L 302.291615 82.378315 
L 302.12775 82.214495 
L 301.963885 82.050674 
L 301.636154 82.050674 
L 301.308424 82.050674 
L 300.980694 82.050674 
L 300.652964 82.050674 
L 300.325233 82.050674 
L 299.997503 82.050674 
L 299.669773 82.050674 
L 299.342043 82.050674 
L 299.014312 82.050674 
L 298.686582 82.050674 
L 298.358852 82.050674 
L 298.194987 81.886854 
L 298.031121 81.723034 
L 297.703391 81.723034 
L 297.375661 81.723034 
L 297.047931 81.723034 
L 296.7202 81.723034 
L 296.39247 81.723034 
L 296.06474 81.723034 
L 295.73701 81.723034 
L 295.409279 81.723034 
L 295.081549 81.723034 
L 294.753819 81.723034 
L 294.426089 81.723034 
L 294.098358 81.723034 
L 293.770628 81.723034 
L 293.442898 81.723034 
L 293.115168 81.723034 
L 292.787437 81.723034 
L 292.459707 81.723034 
L 292.131977 81.723034 
L 291.804246 81.723034 
L 291.476516 81.723034 
L 291.148786 81.723034 
L 290.821056 81.723034 
L 290.493325 81.723034 
L 290.165595 81.723034 
L 289.837865 81.723034 
L 289.510135 81.723034 
L 289.182404 81.723034 
L 288.854674 81.723034 
L 288.526944 81.723034 
L 288.199214 81.723034 
L 287.871483 81.723034 
L 287.543753 81.723034 
L 287.216023 81.723034 
L 286.888293 81.723034 
L 286.560562 81.723034 
L 286.232832 81.723034 
L 285.905102 81.723034 
L 285.577371 81.723034 
L 285.413506 81.886854 
L 285.249641 82.050674 
L 284.921911 82.050674 
L 284.594181 82.050674 
L 284.26645 82.050674 
L 283.93872 82.050674 
L 283.61099 82.050674 
L 283.28326 82.050674 
L 282.955529 82.050674 
L 282.627799 82.050674 
L 282.300069 82.050674 
L 281.972339 82.050674 
L 281.644608 82.050674 
L 281.480743 82.214495 
L 281.316878 82.378315 
L 280.989148 82.378315 
L 280.661418 82.378315 
L 280.333687 82.378315 
L 280.005957 82.378315 
L 279.678227 82.378315 
L 279.350496 82.378315 
L 279.022766 82.378315 
L 278.858901 82.542135 
L 278.695036 82.705955 
L 278.367306 82.705955 
L 278.039575 82.705955 
L 277.711845 82.705955 
L 277.384115 82.705955 
L 277.056385 82.705955 
L 276.728654 82.705955 
L 276.564789 82.869775 
L 276.400924 83.033596 
L 276.073194 83.033596 
L 275.745464 83.033596 
L 275.417733 83.033596 
L 275.090003 83.033596 
L 274.762273 83.033596 
L 274.598408 83.197416 
L 274.434543 83.361236 
L 274.106812 83.361236 
L 273.779082 83.361236 
L 273.451352 83.361236 
L 273.123621 83.361236 
L 272.959756 83.525056 
L 272.795891 83.688877 
L 272.468161 83.688877 
L 272.140431 83.688877 
L 271.8127 83.688877 
L 271.48497 83.688877 
L 271.321105 83.852697 
L 271.15724 84.016517 
L 270.82951 84.016517 
L 270.501779 84.016517 
L 270.174049 84.016517 
L 270.010184 84.180337 
L 269.846319 84.344157 
L 269.518589 84.344157 
L 269.190858 84.344157 
L 268.863128 84.344157 
L 268.535398 84.344157 
L 268.371533 84.507978 
L 268.207668 84.671798 
L 267.879937 84.671798 
L 267.552207 84.671798 
L 267.388342 84.835618 
L 267.224477 84.999438 
L 266.896746 84.999438 
L 266.569016 84.999438 
L 266.241286 84.999438 
L 266.077421 85.163259 
L 265.913556 85.327079 
L 265.585825 85.327079 
L 265.258095 85.327079 
L 264.930365 85.327079 
L 264.7665 85.490899 
L 264.602635 85.654719 
L 264.274904 85.654719 
L 263.947174 85.654719 
L 263.783309 85.818539 
L 263.619444 85.98236 
L 263.291714 85.98236 
L 262.963983 85.98236 
L 262.800118 86.14618 
L 262.636253 86.31 
L 262.308523 86.31 
L 261.980793 86.31 
L 261.816927 86.47382 
L 261.653062 86.637641 
L 261.325332 86.637641 
L 260.997602 86.637641 
L 260.833737 86.801461 
L 260.669871 86.965281 
L 260.342141 86.965281 
L 260.014411 86.965281 
L 259.850546 87.129101 
L 259.686681 87.292922 
L 259.35895 87.292922 
L 259.03122 87.292922 
L 258.867355 87.456742 
L 258.70349 87.620562 
L 258.37576 87.620562 
L 258.048029 87.620562 
L 257.884164 87.784382 
L 257.720299 87.948202 
L 257.392569 87.948202 
L 257.064839 87.948202 
L 256.900973 88.112023 
L 256.737108 88.275843 
L 256.409378 88.275843 
L 256.245513 88.439663 
L 256.081648 88.603483 
L 255.753918 88.603483 
L 255.426187 88.603483 
L 255.262322 88.767304 
L 255.098457 88.931124 
L 254.770727 88.931124 
L 254.606862 89.094944 
L 254.442996 89.258764 
L 254.115266 89.258764 
L 253.951401 89.422584 
L 253.787536 89.586405 
L 253.459806 89.586405 
L 253.132075 89.586405 
L 252.96821 89.750225 
L 252.804345 89.914045 
L 252.476615 89.914045 
L 252.31275 90.077865 
L 252.148885 90.241686 
L 251.821154 90.241686 
L 251.657289 90.405506 
L 251.493424 90.569326 
L 251.165694 90.569326 
L 251.001829 90.733146 
L 250.837964 90.896966 
L 250.510233 90.896966 
L 250.182503 90.896966 
L 250.018638 91.060787 
L 249.854773 91.224607 
L 249.527043 91.224607 
L 249.363177 91.388427 
L 249.199312 91.552247 
L 248.871582 91.552247 
L 248.707717 91.716068 
L 248.543852 91.879888 
L 248.216121 91.879888 
L 248.052256 92.043708 
L 247.888391 92.207528 
L 247.560661 92.207528 
L 247.396796 92.371348 
L 247.232931 92.535169 
L 246.9052 92.535169 
L 246.741335 92.698989 
L 246.57747 92.862809 
L 246.24974 92.862809 
L 246.085875 93.026629 
L 245.92201 93.19045 
L 245.758144 93.35427 
L 245.594279 93.51809 
L 245.266549 93.51809 
L 245.102684 93.68191 
L 244.938819 93.84573 
L 244.611089 93.84573 
L 244.447223 94.009551 
L 244.283358 94.173371 
L 243.955628 94.173371 
L 243.791763 94.337191 
L 243.627898 94.501011 
L 243.300168 94.501011 
L 243.136302 94.664832 
L 242.972437 94.828652 
L 242.808572 94.992472 
L 242.644707 95.156292 
L 242.316977 95.156292 
L 242.153112 95.320113 
L 241.989246 95.483933 
L 241.661516 95.483933 
L 241.497651 95.647753 
L 241.333786 95.811573 
L 241.169921 95.975393 
L 241.006056 96.139214 
L 240.678325 96.139214 
L 240.51446 96.303034 
L 240.350595 96.466854 
L 240.18673 96.630674 
L 240.022865 96.794495 
L 239.695135 96.794495 
L 239.531269 96.958315 
L 239.367404 97.122135 
L 239.039674 97.122135 
L 238.875809 97.285955 
L 238.711944 97.449775 
L 238.548079 97.613596 
L 238.711944 97.777416 
L 238.875809 97.941236 
L 239.039674 98.105056 
L 239.203539 98.268877 
L 239.367404 98.432697 
L 239.695135 98.432697 
L 239.859 98.596517 
L 240.022865 98.760337 
L 240.18673 98.924157 
L 240.350595 99.087978 
L 240.678325 99.087978 
L 240.842191 99.251798 
L 241.006056 99.415618 
L 241.169921 99.579438 
L 241.333786 99.743259 
L 241.497651 99.907079 
L 241.661516 100.070899 
L 241.989246 100.070899 
L 242.153112 100.234719 
L 242.316977 100.398539 
L 242.480842 100.56236 
L 242.644707 100.72618 
L 242.808572 100.89 
L 242.972437 101.05382 
L 243.300168 101.05382 
L 243.464033 101.217641 
L 243.627898 101.381461 
L 243.791763 101.545281 
L 243.955628 101.709101 
L 244.119493 101.872922 
L 244.283358 102.036742 
L 244.611089 102.036742 
L 244.774954 102.200562 
L 244.938819 102.364382 
L 245.102684 102.528202 
L 245.266549 102.692023 
L 245.430414 102.855843 
L 245.594279 103.019663 
L 245.758144 103.183483 
L 245.92201 103.347304 
L 246.24974 103.347304 
L 246.413605 103.511124 
L 246.57747 103.674944 
L 246.741335 103.838764 
L 246.9052 104.002584 
L 247.069066 104.166405 
L 247.232931 104.330225 
L 247.396796 104.494045 
L 247.560661 104.657865 
L 247.888391 104.657865 
L 248.052256 104.821686 
L 248.216121 104.985506 
L 248.379987 105.149326 
L 248.543852 105.313146 
L 248.707717 105.476966 
L 248.871582 105.640787 
L 249.035447 105.804607 
L 249.199312 105.968427 
L 249.363177 106.132247 
L 249.527043 106.296068 
L 249.690908 106.459888 
L 249.854773 106.623708 
L 250.018638 106.787528 
L 250.182503 106.951348 
L 250.346368 107.115169 
L 250.510233 107.278989 
L 250.837964 107.278989 
L 251.001829 107.442809 
L 251.165694 107.606629 
L 251.329559 107.77045 
L 251.493424 107.93427 
L 251.657289 108.09809 
L 251.821154 108.26191 
L 251.985019 108.42573 
L 252.148885 108.589551 
L 252.31275 108.753371 
L 252.476615 108.917191 
L 252.64048 109.081011 
L 252.804345 109.244832 
L 252.96821 109.408652 
L 253.132075 109.572472 
L 253.295941 109.736292 
L 253.459806 109.900113 
L 253.623671 110.063933 
L 253.787536 110.227753 
L 253.951401 110.391573 
L 254.115266 110.555393 
L 254.279131 110.719214 
L 254.442996 110.883034 
L 254.606862 111.046854 
L 254.770727 111.210674 
L 254.934592 111.374495 
L 255.098457 111.538315 
L 255.262322 111.702135 
L 255.426187 111.865955 
L 255.590052 112.029775 
L 255.753918 112.193596 
L 255.917783 112.357416 
L 256.081648 112.521236 
L 256.245513 112.685056 
L 256.409378 112.848877 
L 256.573243 113.012697 
L 256.573243 113.340337 
L 256.737108 113.504157 
L 256.900973 113.667978 
L 257.064839 113.831798 
L 257.228704 113.995618 
L 257.392569 114.159438 
L 257.556434 114.323259 
L 257.720299 114.487079 
L 257.884164 114.650899 
L 258.048029 114.814719 
L 258.211894 114.978539 
L 258.37576 115.14236 
L 258.539625 115.30618 
L 258.70349 115.47 
L 258.867355 115.63382 
L 258.867355 115.961461 
L 259.03122 116.125281 
L 259.195085 116.289101 
L 259.35895 116.452922 
L 259.522816 116.616742 
L 259.686681 116.780562 
L 259.850546 116.944382 
L 260.014411 117.108202 
L 260.178276 117.272023 
L 260.342141 117.435843 
L 260.506006 117.599663 
L 260.506006 117.927304 
L 260.669871 118.091124 
L 260.833737 118.254944 
L 260.997602 118.418764 
L 261.161467 118.582584 
L 261.325332 118.746405 
L 261.489197 118.910225 
L 261.653062 119.074045 
L 261.816927 119.237865 
L 261.816927 119.565506 
L 261.980793 119.729326 
L 262.144658 119.893146 
L 262.308523 120.056966 
L 262.472388 120.220787 
L 262.636253 120.384607 
L 262.800118 120.548427 
L 262.800118 120.876068 
L 262.963983 121.039888 
L 263.127848 121.203708 
L 263.291714 121.367528 
L 263.455579 121.531348 
L 263.619444 121.695169 
L 263.783309 121.858989 
L 263.783309 122.186629 
L 263.947174 122.35045 
L 264.111039 122.51427 
L 264.274904 122.67809 
L 264.438769 122.84191 
L 264.438769 123.169551 
L 264.602635 123.333371 
L 264.7665 123.497191 
L 264.930365 123.661011 
L 265.09423 123.824832 
L 265.258095 123.988652 
L 265.42196 124.152472 
L 265.42196 124.480113 
L 265.585825 124.643933 
L 265.749691 124.807753 
L 265.913556 124.971573 
L 266.077421 125.135393 
L 266.077421 125.463034 
L 266.241286 125.626854 
L 266.405151 125.790674 
L 266.405151 126.118315 
L 266.569016 126.282135 
L 266.732881 126.445955 
L 266.896746 126.609775 
L 267.060612 126.773596 
L 267.060612 127.101236 
L 267.224477 127.265056 
L 267.388342 127.428877 
L 267.552207 127.592697 
L 267.716072 127.756517 
L 267.716072 128.084157 
L 267.879937 128.247978 
L 268.043802 128.411798 
L 268.043802 128.739438 
L 268.207668 128.903259 
L 268.371533 129.067079 
L 268.535398 129.230899 
L 268.699263 129.394719 
L 268.699263 129.72236 
L 268.863128 129.88618 
L 269.026993 130.05 
L 269.026993 130.377641 
L 269.190858 130.541461 
L 269.354723 130.705281 
L 269.518589 130.869101 
L 269.682454 131.032922 
L 269.682454 131.360562 
L 269.846319 131.524382 
L 270.010184 131.688202 
L 270.010184 132.015843 
L 270.174049 132.179663 
L 270.337914 132.343483 
L 270.337914 132.671124 
L 270.501779 132.834944 
L 270.665644 132.998764 
L 270.665644 133.326405 
L 270.82951 133.490225 
L 270.993375 133.654045 
L 270.993375 133.981686 
L 271.15724 134.145506 
L 271.321105 134.309326 
L 271.321105 134.636966 
L 271.48497 134.800787 
L 271.648835 134.964607 
L 271.648835 135.292247 
L 271.8127 135.456068 
L 271.976566 135.619888 
L 271.976566 135.947528 
L 272.140431 136.111348 
L 272.304296 136.275169 
L 272.304296 136.602809 
L 272.468161 136.766629 
L 272.632026 136.93045 
L 272.632026 137.25809 
L 272.795891 137.42191 
L 272.959756 137.58573 
L 272.959756 137.913371 
L 273.123621 138.077191 
L 273.287487 138.241011 
L 273.287487 138.568652 
L 273.451352 138.732472 
L 273.615217 138.896292 
L 273.615217 139.223933 
L 273.779082 139.387753 
L 273.942947 139.551573 
L 273.942947 139.879214 
L 273.942947 140.206854 
L 274.106812 140.370674 
L 274.270677 140.534495 
L 274.270677 140.862135 
L 274.434543 141.025955 
L 274.598408 141.189775 
L 274.598408 141.517416 
L 274.762273 141.681236 
L 274.926138 141.845056 
L 274.926138 142.172697 
L 274.926138 142.500337 
L 275.090003 142.664157 
L 275.253868 142.827978 
L 275.253868 143.155618 
L 275.417733 143.319438 
L 275.581598 143.483259 
L 275.581598 143.810899 
L 275.581598 144.138539 
L 275.745464 144.30236 
L 275.909329 144.46618 
L 275.909329 144.79382 
L 276.073194 144.957641 
L 276.237059 145.121461 
L 276.237059 145.449101 
L 276.237059 145.776742 
L 276.400924 145.940562 
L 276.564789 146.104382 
L 276.564789 146.432023 
L 276.564789 146.759663 
L 276.728654 146.923483 
L 276.892519 147.087304 
L 276.892519 147.414944 
L 276.892519 147.742584 
L 277.056385 147.906405 
L 277.22025 148.070225 
L 277.22025 148.397865 
L 277.22025 148.725506 
L 277.384115 148.889326 
L 277.54798 149.053146 
L 277.54798 149.380787 
L 277.54798 149.708427 
L 277.711845 149.872247 
L 277.87571 150.036068 
L 277.87571 150.363708 
L 277.87571 150.691348 
L 278.039575 150.855169 
L 278.203441 151.018989 
L 278.203441 151.346629 
L 278.203441 151.67427 
L 278.203441 152.00191 
L 278.367306 152.16573 
L 278.531171 152.329551 
L 278.531171 152.657191 
L 278.531171 152.984832 
L 278.695036 153.148652 
L 278.858901 153.312472 
L 278.858901 153.640113 
L 278.858901 153.967753 
L 278.858901 154.295393 
L 279.022766 154.459214 
L 279.186631 154.623034 
L 279.186631 154.950674 
L 279.186631 155.278315 
L 279.186631 155.605955 
L 279.350496 155.769775 
L 279.514362 155.933596 
L 279.514362 156.261236 
L 279.514362 156.588877 
L 279.514362 156.916517 
L 279.678227 157.080337 
L 279.842092 157.244157 
L 279.842092 157.571798 
L 279.842092 157.899438 
L 279.842092 158.227079 
L 279.842092 158.554719 
L 280.005957 158.718539 
L 280.169822 158.88236 
L 280.169822 159.21 
L 280.169822 159.537641 
L 280.169822 159.865281 
L 280.169822 160.192922 
L 280.333687 160.356742 
L 280.497552 160.520562 
L 280.497552 160.848202 
L 280.497552 161.175843 
L 280.497552 161.503483 
L 280.497552 161.831124 
L 280.661418 161.994944 
L 280.825283 162.158764 
L 280.825283 162.486405 
L 280.825283 162.814045 
L 280.825283 163.141686 
L 280.825283 163.469326 
L 280.825283 163.796966 
L 280.989148 163.960787 
L 281.153013 164.124607 
L 281.153013 164.452247 
L 281.153013 164.779888 
L 281.153013 165.107528 
L 281.153013 165.435169 
L 281.153013 165.762809 
L 281.153013 166.09045 
L 281.316878 166.25427 
L 281.480743 166.41809 
L 281.480743 166.74573 
L 281.480743 167.073371 
L 281.480743 167.401011 
L 281.480743 167.728652 
L 281.480743 168.056292 
L 281.480743 168.383933 
L 281.480743 168.711573 
L 281.480743 169.039214 
L 281.644608 169.203034 
L 281.808473 169.366854 
L 281.808473 169.694495 
L 281.808473 170.022135 
L 281.808473 170.349775 
L 281.808473 170.677416 
L 281.808473 171.005056 
L 281.808473 171.332697 
L 281.808473 171.660337 
L 281.808473 171.987978 
L 281.808473 172.315618 
L 281.808473 172.643259 
L 281.808473 172.970899 
L 281.808473 173.298539 
L 281.972339 173.46236 
L 282.136204 173.62618 
L 282.136204 173.95382 
L 282.136204 174.281461 
L 282.136204 174.609101 
L 282.136204 174.936742 
L 282.136204 175.264382 
L 282.136204 175.592023 
L 282.136204 175.919663 
L 282.136204 176.247304 
L 282.136204 176.574944 
L 282.136204 176.902584 
L 282.136204 177.230225 
L 282.136204 177.557865 
L 282.136204 177.885506 
L 282.136204 178.213146 
L 282.136204 178.540787 
L 282.136204 178.868427 
L 282.136204 179.196068 
L 282.136204 179.523708 
L 282.136204 179.851348 
L 282.136204 180.178989 
L 282.136204 180.506629 
L 282.136204 180.83427 
L 282.136204 181.16191 
L 282.136204 181.489551 
L 282.136204 181.817191 
L 282.136204 182.144832 
L 282.136204 182.472472 
L 282.136204 182.800113 
L 282.136204 183.127753 
L 282.136204 183.455393 
L 282.136204 183.783034 
L 282.136204 184.110674 
L 281.972339 184.274495 
L 281.808473 184.438315 
L 281.808473 184.765955 
L 281.808473 185.093596 
L 281.808473 185.421236 
L 281.808473 185.748877 
L 281.808473 186.076517 
L 281.808473 186.404157 
L 281.808473 186.731798 
L 281.808473 187.059438 
L 281.808473 187.387079 
L 281.808473 187.714719 
L 281.808473 188.04236 
L 281.808473 188.37 
L 281.644608 188.53382 
L 281.480743 188.697641 
L 281.480743 189.025281 
L 281.480743 189.352922 
L 281.480743 189.680562 
L 281.480743 190.008202 
L 281.480743 190.335843 
L 281.480743 190.663483 
L 281.480743 190.991124 
L 281.480743 191.318764 
L 281.316878 191.482584 
L 281.153013 191.646405 
L 281.153013 191.974045 
L 281.153013 192.301686 
L 281.153013 192.629326 
L 281.153013 192.956966 
L 281.153013 193.284607 
L 281.153013 193.612247 
L 280.989148 193.776068 
L 280.825283 193.939888 
L 280.825283 194.267528 
L 280.825283 194.595169 
L 280.825283 194.922809 
L 280.825283 195.25045 
L 280.825283 195.57809 
L 280.661418 195.74191 
L 280.497552 195.90573 
L 280.497552 196.233371 
L 280.497552 196.561011 
L 280.497552 196.888652 
L 280.497552 197.216292 
L 280.333687 197.380113 
L 280.169822 197.543933 
L 280.169822 197.871573 
L 280.169822 198.199214 
L 280.169822 198.526854 
L 280.169822 198.854495 
L 280.005957 199.018315 
L 279.842092 199.182135 
L 279.842092 199.509775 
L 279.842092 199.837416 
L 279.842092 200.165056 
L 279.842092 200.492697 
L 279.678227 200.656517 
L 279.514362 200.820337 
L 279.514362 201.147978 
L 279.514362 201.475618 
L 279.514362 201.803259 
L 279.350496 201.967079 
L 279.186631 202.130899 
L 279.186631 202.458539 
L 279.186631 202.78618 
L 279.186631 203.11382 
L 279.022766 203.277641 
L 278.858901 203.441461 
L 278.858901 203.769101 
L 278.858901 204.096742 
L 278.858901 204.424382 
L 278.695036 204.588202 
L 278.531171 204.752023 
L 278.531171 205.079663 
L 278.531171 205.407304 
L 278.367306 205.571124 
L 278.203441 205.734944 
L 278.203441 206.062584 
L 278.203441 206.390225 
L 278.203441 206.717865 
L 278.039575 206.881686 
L 277.87571 207.045506 
L 277.87571 207.373146 
L 277.87571 207.700787 
L 277.711845 207.864607 
L 277.54798 208.028427 
L 277.54798 208.356068 
L 277.54798 208.683708 
L 277.384115 208.847528 
L 277.22025 209.011348 
L 277.22025 209.338989 
L 277.22025 209.666629 
L 277.056385 209.83045 
L 276.892519 209.99427 
L 276.892519 210.32191 
L 276.892519 210.649551 
L 276.728654 210.813371 
L 276.564789 210.977191 
L 276.564789 211.304832 
L 276.564789 211.632472 
L 276.400924 211.796292 
L 276.237059 211.960113 
L 276.237059 212.287753 
L 276.237059 212.615393 
L 276.073194 212.779214 
L 275.909329 212.943034 
L 275.909329 213.270674 
L 275.745464 213.434495 
L 275.581598 213.598315 
L 275.581598 213.925955 
L 275.581598 214.253596 
L 275.417733 214.417416 
L 275.253868 214.581236 
L 275.253868 214.908877 
L 275.090003 215.072697 
L 274.926138 215.236517 
L 274.926138 215.564157 
L 274.926138 215.891798 
L 274.762273 216.055618 
L 274.598408 216.219438 
L 274.598408 216.547079 
L 274.434543 216.710899 
L 274.270677 216.874719 
L 274.270677 217.20236 
L 274.106812 217.36618 
L 273.942947 217.53 
L 273.942947 217.857641 
L 273.942947 218.185281 
L 273.779082 218.349101 
L 273.615217 218.512922 
L 273.615217 218.840562 
L 273.451352 219.004382 
L 273.287487 219.168202 
L 273.287487 219.495843 
L 273.123621 219.659663 
L 272.959756 219.823483 
L 272.959756 220.151124 
L 272.795891 220.314944 
L 272.632026 220.478764 
L 272.632026 220.806405 
L 272.468161 220.970225 
L 272.304296 221.134045 
L 272.304296 221.461686 
L 272.140431 221.625506 
L 271.976566 221.789326 
L 271.976566 222.116966 
L 271.8127 222.280787 
L 271.648835 222.444607 
L 271.648835 222.772247 
L 271.48497 222.936068 
L 271.321105 223.099888 
L 271.321105 223.427528 
L 271.15724 223.591348 
L 270.993375 223.755169 
L 270.993375 224.082809 
L 270.82951 224.246629 
L 270.665644 224.41045 
L 270.665644 224.73809 
L 270.501779 224.90191 
L 270.337914 225.06573 
L 270.337914 225.393371 
L 270.174049 225.557191 
L 270.010184 225.721011 
L 270.010184 226.048652 
L 269.846319 226.212472 
L 269.682454 226.376292 
L 269.682454 226.703933 
L 269.518589 226.867753 
L 269.354723 227.031573 
L 269.190858 227.195393 
L 269.026993 227.359214 
L 269.026993 227.686854 
L 268.863128 227.850674 
L 268.699263 228.014495 
L 268.699263 228.342135 
L 268.535398 228.505955 
L 268.371533 228.669775 
L 268.207668 228.833596 
L 268.043802 228.997416 
L 268.043802 229.325056 
L 267.879937 229.488877 
L 267.716072 229.652697 
L 267.716072 229.980337 
L 267.552207 230.144157 
L 267.388342 230.307978 
L 267.224477 230.471798 
L 267.060612 230.635618 
L 267.060612 230.963259 
L 266.896746 231.127079 
L 266.732881 231.290899 
L 266.569016 231.454719 
L 266.405151 231.618539 
L 266.405151 231.94618 
L 266.241286 232.11 
L 266.077421 232.27382 
L 266.077421 232.601461 
L 265.913556 232.765281 
L 265.749691 232.929101 
L 265.585825 233.092922 
L 265.42196 233.256742 
L 265.42196 233.584382 
L 265.258095 233.748202 
L 265.09423 233.912023 
L 264.930365 234.075843 
L 264.7665 234.239663 
L 264.602635 234.403483 
L 264.438769 234.567304 
L 264.438769 234.894944 
L 264.274904 235.058764 
L 264.111039 235.222584 
L 263.947174 235.386405 
L 263.783309 235.550225 
L 263.783309 235.877865 
L 263.619444 236.041686 
L 263.455579 236.205506 
L 263.291714 236.369326 
L 263.127848 236.533146 
L 262.963983 236.696966 
L 262.800118 236.860787 
L 262.800118 237.188427 
L 262.636253 237.352247 
L 262.472388 237.516068 
L 262.308523 237.679888 
L 262.144658 237.843708 
L 261.980793 238.007528 
L 261.816927 238.171348 
L 261.816927 238.498989 
L 261.653062 238.662809 
L 261.489197 238.826629 
L 261.325332 238.99045 
L 261.161467 239.15427 
L 260.997602 239.31809 
L 260.833737 239.48191 
L 260.669871 239.64573 
L 260.506006 239.809551 
L 260.506006 240.137191 
L 260.342141 240.301011 
L 260.178276 240.464832 
L 260.014411 240.628652 
L 259.850546 240.792472 
L 259.686681 240.956292 
L 259.522816 241.120113 
L 259.35895 241.283933 
L 259.195085 241.447753 
L 259.03122 241.611573 
L 258.867355 241.775393 
L 258.867355 242.103034 
L 258.70349 242.266854 
L 258.539625 242.430674 
L 258.37576 242.594495 
L 258.211894 242.758315 
L 258.048029 242.922135 
L 257.884164 243.085955 
L 257.720299 243.249775 
L 257.556434 243.413596 
L 257.392569 243.577416 
L 257.228704 243.741236 
L 257.064839 243.905056 
L 256.900973 244.068877 
L 256.737108 244.232697 
L 256.573243 244.396517 
L 256.573243 244.724157 
L 256.409378 244.887978 
L 256.245513 245.051798 
L 256.081648 245.215618 
L 255.917783 245.379438 
L 255.753918 245.543259 
L 255.590052 245.707079 
L 255.426187 245.870899 
L 255.262322 246.034719 
L 255.098457 246.198539 
L 254.934592 246.36236 
L 254.770727 246.52618 
L 254.606862 246.69 
L 254.442996 246.85382 
L 254.279131 247.017641 
L 254.115266 247.181461 
L 253.951401 247.345281 
L 253.787536 247.509101 
L 253.623671 247.672922 
L 253.459806 247.836742 
L 253.295941 248.000562 
L 253.132075 248.164382 
L 252.96821 248.328202 
L 252.804345 248.492023 
L 252.64048 248.655843 
L 252.476615 248.819663 
L 252.31275 248.983483 
L 252.148885 249.147304 
L 251.985019 249.311124 
L 251.821154 249.474944 
L 251.657289 249.638764 
L 251.493424 249.802584 
L 251.329559 249.966405 
L 251.165694 250.130225 
L 251.001829 250.294045 
L 250.837964 250.457865 
L 250.510233 250.457865 
L 250.346368 250.621686 
L 250.182503 250.785506 
L 250.018638 250.949326 
L 249.854773 251.113146 
L 249.690908 251.276966 
L 249.527043 251.440787 
L 249.363177 251.604607 
L 249.199312 251.768427 
L 249.035447 251.932247 
L 248.871582 252.096068 
L 248.707717 252.259888 
L 248.543852 252.423708 
L 248.379987 252.587528 
L 248.216121 252.751348 
L 248.052256 252.915169 
L 247.888391 253.078989 
L 247.560661 253.078989 
L 247.396796 253.242809 
L 247.232931 253.406629 
L 247.069066 253.57045 
L 246.9052 253.73427 
L 246.741335 253.89809 
L 246.57747 254.06191 
L 246.413605 254.22573 
L 246.24974 254.389551 
L 245.92201 254.389551 
L 245.758144 254.553371 
L 245.594279 254.717191 
L 245.430414 254.881011 
L 245.266549 255.044832 
L 245.102684 255.208652 
L 244.938819 255.372472 
L 244.774954 255.536292 
L 244.611089 255.700113 
L 244.283358 255.700113 
L 244.119493 255.863933 
L 243.955628 256.027753 
L 243.791763 256.191573 
L 243.627898 256.355393 
L 243.464033 256.519214 
L 243.300168 256.683034 
L 242.972437 256.683034 
L 242.808572 256.846854 
L 242.644707 257.010674 
L 242.480842 257.174495 
L 242.316977 257.338315 
L 242.153112 257.502135 
L 241.989246 257.665955 
L 241.661516 257.665955 
L 241.497651 257.829775 
L 241.333786 257.993596 
L 241.169921 258.157416 
L 241.006056 258.321236 
L 240.842191 258.485056 
L 240.678325 258.648877 
L 240.350595 258.648877 
L 240.18673 258.812697 
L 240.022865 258.976517 
L 239.859 259.140337 
L 239.695135 259.304157 
L 239.367404 259.304157 
L 239.203539 259.467978 
L 239.039674 259.631798 
L 238.875809 259.795618 
L 238.711944 259.959438 
L 238.548079 260.123259 
L 238.711944 260.287079 
L 238.875809 260.450899 
L 239.039674 260.614719 
L 239.367404 260.614719 
L 239.531269 260.778539 
L 239.695135 260.94236 
L 240.022865 260.94236 
L 240.18673 261.10618 
L 240.350595 261.27 
L 240.51446 261.43382 
L 240.678325 261.597641 
L 241.006056 261.597641 
L 241.169921 261.761461 
L 241.333786 261.925281 
L 241.497651 262.089101 
L 241.661516 262.252922 
L 241.989246 262.252922 
L 242.153112 262.416742 
L 242.316977 262.580562 
L 242.644707 262.580562 
L 242.808572 262.744382 
L 242.972437 262.908202 
L 243.136302 263.072023 
L 243.300168 263.235843 
L 243.627898 263.235843 
L 243.791763 263.399663 
L 243.955628 263.563483 
L 244.283358 263.563483 
L 244.447223 263.727304 
L 244.611089 263.891124 
L 244.938819 263.891124 
L 245.102684 264.054944 
L 245.266549 264.218764 
L 245.594279 264.218764 
L 245.758144 264.382584 
L 245.92201 264.546405 
L 246.085875 264.710225 
L 246.24974 264.874045 
L 246.57747 264.874045 
L 246.741335 265.037865 
L 246.9052 265.201686 
L 247.232931 265.201686 
L 247.396796 265.365506 
L 247.560661 265.529326 
L 247.888391 265.529326 
L 248.052256 265.693146 
L 248.216121 265.856966 
L 248.543852 265.856966 
L 248.707717 266.020787 
L 248.871582 266.184607 
L 249.199312 266.184607 
L 249.363177 266.348427 
L 249.527043 266.512247 
L 249.854773 266.512247 
L 250.018638 266.676068 
L 250.182503 266.839888 
L 250.510233 266.839888 
L 250.837964 266.839888 
L 251.001829 267.003708 
L 251.165694 267.167528 
L 251.493424 267.167528 
L 251.657289 267.331348 
L 251.821154 267.495169 
L 252.148885 267.495169 
L 252.31275 267.658989 
L 252.476615 267.822809 
L 252.804345 267.822809 
L 252.96821 267.986629 
L 253.132075 268.15045 
L 253.459806 268.15045 
L 253.787536 268.15045 
L 253.951401 268.31427 
L 254.115266 268.47809 
L 254.442996 268.47809 
L 254.606862 268.64191 
L 254.770727 268.80573 
L 255.098457 268.80573 
L 255.262322 268.969551 
L 255.426187 269.133371 
L 255.753918 269.133371 
L 256.081648 269.133371 
L 256.245513 269.297191 
L 256.409378 269.461011 
L 256.737108 269.461011 
L 256.900973 269.624832 
L 257.064839 269.788652 
L 257.392569 269.788652 
L 257.720299 269.788652 
L 257.884164 269.952472 
L 258.048029 270.116292 
L 258.37576 270.116292 
L 258.70349 270.116292 
L 258.867355 270.280113 
L 259.03122 270.443933 
L 259.35895 270.443933 
L 259.686681 270.443933 
L 259.850546 270.607753 
L 260.014411 270.771573 
L 260.342141 270.771573 
L 260.669871 270.771573 
L 260.833737 270.935393 
L 260.997602 271.099214 
L 261.325332 271.099214 
L 261.653062 271.099214 
L 261.816927 271.263034 
L 261.980793 271.426854 
L 262.308523 271.426854 
L 262.636253 271.426854 
L 262.800118 271.590674 
L 262.963983 271.754495 
L 263.291714 271.754495 
L 263.619444 271.754495 
L 263.783309 271.918315 
L 263.947174 272.082135 
L 264.274904 272.082135 
L 264.602635 272.082135 
L 264.7665 272.245955 
L 264.930365 272.409775 
L 265.258095 272.409775 
L 265.585825 272.409775 
L 265.913556 272.409775 
L 266.077421 272.573596 
L 266.241286 272.737416 
L 266.569016 272.737416 
L 266.896746 272.737416 
L 267.224477 272.737416 
L 267.388342 272.901236 
L 267.552207 273.065056 
L 267.879937 273.065056 
L 268.207668 273.065056 
L 268.371533 273.228877 
L 268.535398 273.392697 
L 268.863128 273.392697 
L 269.190858 273.392697 
L 269.518589 273.392697 
L 269.846319 273.392697 
L 270.010184 273.556517 
L 270.174049 273.720337 
L 270.501779 273.720337 
L 270.82951 273.720337 
L 271.15724 273.720337 
L 271.321105 273.884157 
L 271.48497 274.047978 
L 271.8127 274.047978 
L 272.140431 274.047978 
L 272.468161 274.047978 
L 272.795891 274.047978 
L 272.959756 274.211798 
L 273.123621 274.375618 
L 273.451352 274.375618 
L 273.779082 274.375618 
L 274.106812 274.375618 
L 274.434543 274.375618 
L 274.598408 274.539438 
L 274.762273 274.703259 
L 275.090003 274.703259 
L 275.417733 274.703259 
L 275.745464 274.703259 
L 276.073194 274.703259 
L 276.400924 274.703259 
L 276.564789 274.867079 
L 276.728654 275.030899 
L 277.056385 275.030899 
L 277.384115 275.030899 
L 277.711845 275.030899 
L 278.039575 275.030899 
L 278.367306 275.030899 
L 278.695036 275.030899 
L 278.858901 275.194719 
L 279.022766 275.358539 
L 279.350496 275.358539 
L 279.678227 275.358539 
L 280.005957 275.358539 
L 280.333687 275.358539 
L 280.661418 275.358539 
L 280.989148 275.358539 
L 281.316878 275.358539 
L 281.480743 275.52236 
L 281.644608 275.68618 
L 281.972339 275.68618 
L 282.300069 275.68618 
L 282.627799 275.68618 
L 282.955529 275.68618 
L 283.28326 275.68618 
L 283.61099 275.68618 
L 283.93872 275.68618 
L 284.26645 275.68618 
L 284.594181 275.68618 
L 284.921911 275.68618 
L 285.249641 275.68618 
L 285.413506 275.85 
z
" clip-path="url(#p24648676ee)" style="fill: var(--fill)"/>
   </g>
   <g id="patch_2">
    <path d="M 184.924214 276.068427 
C 210.701955 276.068427 235.427377 265.826822 253.654993 247.599206 
C 271.882608 229.371591 282.124214 204.646168 282.124214 178.868427 
C 282.124214 153.090686 271.882608 128.365264 253.654993 110.137648 
C 235.427377 91.910032 210.701955 81.668427 184.924214 81.668427 
C 159.146472 81.668427 134.42105 91.910032 116.193434 110.137648 
C 97.965819 128.365264 87.724214 153.090686 87.724214 178.868427 
C 87.724214 204.646168 97.965819 229.371591 116.193434 247.599206 
C 134.42105 265.826822 159.146472 276.068427 184.924214 276.068427 
L 184.924214 276.068427 
z
" clip-path="url(#p24648676ee)" style="fill: none; stroke: var(--ink); stroke-width: 1.6; stroke-linejoin: miter"/>
   </g>
   <g id="patch_3">
    <path d="M 291.844214 276.068427 
C 317.621955 276.068427 342.347377 265.826822 360.574993 247.599206 
C 378.802608 229.371591 389.044214 204.646168 389.044214 178.868427 
C 389.044214 153.090686 378.802608 128.365264 360.574993 110.137648 
C 342.347377 91.910032 317.621955 81.668427 291.844214 81.668427 
C 266.066472 81.668427 241.34105 91.910032 223.113434 110.137648 
C 204.885819 128.365264 194.644214 153.090686 194.644214 178.868427 
C 194.644214 204.646168 204.885819 229.371591 223.113434 247.599206 
C 241.34105 265.826822 266.066472 276.068427 291.844214 276.068427 
L 291.844214 276.068427 
z
" clip-path="url(#p24648676ee)" style="fill: none; stroke: var(--ink); stroke-width: 1.6; stroke-linejoin: miter"/>
   </g>
   <g id="patch_4">
    <path d="M 39.124214 324.668427 
L 437.644214 324.668427 
L 437.644214 33.068427 
L 39.124214 33.068427 
L 39.124214 324.668427 
z
" clip-path="url(#p24648676ee)" style="fill: none; stroke: var(--ink); stroke-width: 1.6; stroke-linejoin: miter"/>
   </g>
   <g id="text_1">
    <!-- A -->
    <g transform="translate(101.051882 103.565783) scale(0.18 -0.18)">
     <defs>
      <path id="DejaVuSans-41" d="M 2188 4044 
L 1331 1722 
L 3047 1722 
L 2188 4044 
z
M 1831 4666 
L 2547 4666 
L 4325 0 
L 3669 0 
L 3244 1197 
L 1141 1197 
L 716 0 
L 50 0 
L 1831 4666 
z
" transform="scale(0.015625)"/>
     </defs>
     <use xlink:href="#DejaVuSans-41"/>
    </g>
   </g>
   <g id="text_2">
    <!-- B -->
    <g transform="translate(363.40342 103.565783) scale(0.18 -0.18)">
     <defs>
      <path id="DejaVuSans-42" d="M 1259 2228 
L 1259 519 
L 2272 519 
Q 2781 519 3026 730 
Q 3272 941 3272 1375 
Q 3272 1813 3026 2020 
Q 2781 2228 2272 2228 
L 1259 2228 
z
M 1259 4147 
L 1259 2741 
L 2194 2741 
Q 2656 2741 2882 2914 
Q 3109 3088 3109 3444 
Q 3109 3797 2882 3972 
Q 2656 4147 2194 4147 
L 1259 4147 
z
M 628 4666 
L 2241 4666 
Q 2963 4666 3353 4366 
Q 3744 4066 3744 3513 
Q 3744 3084 3544 2831 
Q 3344 2578 2956 2516 
Q 3422 2416 3680 2098 
Q 3938 1781 3938 1306 
Q 3938 681 3513 340 
Q 3088 0 2303 0 
L 628 0 
L 628 4666 
z
" transform="scale(0.015625)"/>
     </defs>
     <use xlink:href="#DejaVuSans-42"/>
    </g>
   </g>
   <g id="text_3">
    <!-- U -->
    <g transform="translate(23.122036 26.496563) scale(0.18 -0.18)">
     <defs>
      <path id="DejaVuSans-55" d="M 556 4666 
L 1191 4666 
L 1191 1831 
Q 1191 1081 1462 751 
Q 1734 422 2344 422 
Q 2950 422 3222 751 
Q 3494 1081 3494 1831 
L 3494 4666 
L 4128 4666 
L 4128 1753 
Q 4128 841 3676 375 
Q 3225 -91 2344 -91 
Q 1459 -91 1007 375 
Q 556 841 556 1753 
L 556 4666 
z
" transform="scale(0.015625)"/>
     </defs>
     <use xlink:href="#DejaVuSans-55"/>
    </g>
   </g>
  </g>
 </g>
 <defs>
  <clipPath id="p24648676ee">
   <rect x="0" y="-325.131573" width="460.8" height="1008"/>
  </clipPath>
 </defs>
</svg>
